#!OML:ASF Y:\EmotionMaleHayes\Project 1\Capture day 1\Session 1\Male1.ASF
:FULLY-SPECIFIED
:DEGREES
782
root 32.4175 16.8735 -0.998236 120.999 96.7398 124.666
lowerback 7.2817 2.21954 4.59082
upperback 7.70455 3.41999 1.96132
thorax 4.07812 2.01487 -0.636518
lowerneck -22.3902 -0.00974749 1.1656
upperneck 17.0039 -1.90544 7.39908
head 9.11998 0.0920516 2.10774
rclavicle 3.3048e-014 -2.28602e-015
rhumerus -18.3655 19.3513 -89.1532
rradius 39.4684
rwrist -4.82864
rhand -10.4213 -34.2643
rfingers 7.12502
rthumb 15.5779 -63.657
lclavicle 3.3048e-014 -2.28602e-015
lhumerus -19.0882 -14.2084 88.5248
lradius 29.7532
lwrist 0.66262
lhand -20.8851 -26.305
lfingers 7.12502
lthumb 5.48528 3.60397
rfemur 10.4571 -1.5759 27.0795
rtibia 10.3612
rfoot -20.2621 -3.26307
rtoes 11.9079
lfemur -21.0118 8.36131 -7.2653
ltibia 36.0036
lfoot -10.9839 8.52015
ltoes -7.066
783
root 32.5305 16.8604 -1.00621 120.844 97.0511 124.328
lowerback 7.14058 2.27419 4.93848
upperback 7.60994 3.49528 1.90124
thorax 4.08833 2.06619 -0.888918
lowerneck -22.4569 -0.181273 1.06246
upperneck 17.1663 -2.05711 7.06537
head 9.18737 -0.021325 1.98946
rclavicle -1.22253e-014 -1.47101e-014
rhumerus -18.2634 19.9944 -89.3225
rradius 39.6573
rwrist -5.02857
rhand -10.5167 -34.2606
rfingers 7.12502
rthumb 15.486 -63.6604
lclavicle -1.22253e-014 -1.47101e-014
lhumerus -19.1299 -14.1238 88.3987
lradius 29.9248
lwrist 0.99286
lhand -20.9188 -26.3792
lfingers 7.12502
lthumb 5.45279 3.53068
rfemur 10.8264 -1.78029 27.2452
rtibia 10.1715
rfoot -20.5173 -2.81471
rtoes 12.8057
lfemur -21.2656 7.94051 -6.80328
ltibia 33.4704
lfoot -10.333 8.80958
ltoes -4.76194
784
root 32.6496 16.8471 -1.01487 122.17 97.2752 125.513
lowerback 7.00859 2.35088 5.06334
upperback 7.4895 3.5897 1.81153
thorax 4.0544 2.11467 -1.05098
lowerneck -22.037 -0.134194 1.09249
upperneck 17.0041 -1.89041 6.63664
head 9.04305 -0.00720089 1.85288
rclavicle -2.36305e-014 -1.67476e-014
rhumerus -18.3966 20.5449 -89.5287
rradius 40.0697
rwrist -4.75899
rhand -10.3936 -34.2841
rfingers 7.12502
rthumb 15.6046 -63.6747
lclavicle -2.36305e-014 -1.67476e-014
lhumerus -19.3243 -13.8631 88.2985
lradius 30.121
lwrist 1.20009
lhand -20.9096 -26.4725
lfingers 7.12502
lthumb 5.46161 3.43708
rfemur 11.2083 -1.79876 27.2384
rtibia 10.0806
rfoot -20.7301 -2.41567
rtoes 13.6453
lfemur -21.28 7.39235 -6.48054
ltibia 30.5401
lfoot -9.42404 9.22629
ltoes -3.41143
785
root 32.7726 16.8334 -1.02378 123.284 97.423 126.484
lowerback 6.86137 2.40996 5.11266
upperback 7.37513 3.65657 1.72892
thorax 4.02844 2.14587 -1.162
lowerneck -21.9946 -0.144324 0.844082
upperneck 17.1026 -1.80665 6.50825
head 9.06526 -0.000125298 1.86143
rclavicle 1.72756e-014 -1.41883e-014
rhumerus -18.3967 21.129 -89.6549
rradius 40.3986
rwrist -4.6411
rhand -10.4347 -34.2348
rfingers 7.12502
rthumb 15.565 -63.6284
lclavicle 1.72756e-014 -1.41883e-014
lhumerus -19.5913 -13.7639 88.2636
lradius 30.3972
lwrist 1.39117
lhand -21.0236 -26.4029
lfingers 7.12502
lthumb 5.3516 3.50954
rfemur 11.6505 -1.78105 27.1893
rtibia 9.86865
rfoot -20.9534 -2.26108
rtoes 13.43
lfemur -21.1732 6.5775 -6.1885
ltibia 27.4086
lfoot -8.24743 9.59315
ltoes -1.29977
786
root 32.9003 16.8175 -1.03419 123.395 97.4286 126.432
lowerback 6.62299 2.38013 5.05068
upperback 7.25584 3.59389 1.66572
thorax 4.03076 2.10659 -1.18384
lowerneck -22.2378 -0.16529 0.611742
upperneck 17.5644 -1.7509 6.28143
head 9.26342 -0.0027031 1.83653
rclavicle -2.33355e-014 2.47922e-014
rhumerus -18.2885 21.8361 -89.8078
rradius 40.3724
rwrist -4.70217
rhand -10.6808 -33.7537
rfingers 7.12502
rthumb 15.3279 -63.1656
lclavicle -2.33355e-014 2.47922e-014
lhumerus -19.9387 -13.5802 88.2408
lradius 30.6847
lwrist 1.50328
lhand -21.0567 -26.1493
lfingers 7.12502
lthumb 5.31957 3.76397
rfemur 12.1614 -2.06487 26.9817
rtibia 9.55322
rfoot -21.2917 -2.01709
rtoes 12.9464
lfemur -21.0757 5.49316 -5.98698
ltibia 24.3928
lfoot -6.93713 9.82167
ltoes -0.128178
787
root 33.0241 16.7976 -1.04242 124.313 97.5106 127.203
lowerback 6.46567 2.43106 4.98913
upperback 7.12311 3.64472 1.61121
thorax 3.98031 2.12282 -1.20436
lowerneck -22.6686 -0.108733 0.948978
upperneck 18.334 -1.60725 5.21626
head 9.58682 -0.017761 1.44166
rclavicle 1.29272e-014 9.14409e-015
rhumerus -18.2621 22.3486 -89.9377
rradius 40.338
rwrist -4.7325
rhand -11.0589 -33.105
rfingers 7.12502
rthumb 14.9638 -62.5444
lclavicle 1.29272e-014 9.14409e-015
lhumerus -20.2878 -13.4643 88.2877
lradius 30.8502
lwrist 1.43645
lhand -21.2567 -26.2008
lfingers 7.12502
lthumb 5.12645 3.7172
rfemur 12.5874 -2.27348 26.7802
rtibia 9.41135
rfoot -21.6949 -1.71568
rtoes 12.353
lfemur -20.9562 4.37499 -5.6885
ltibia 21.5395
lfoot -5.88883 10.1172
ltoes -0.109119
788
root 33.1487 16.7742 -1.05058 125 98.0055 127.795
lowerback 6.30996 2.52499 5.2841
upperback 7.06069 3.76679 1.62207
thorax 4.03039 2.19444 -1.35158
lowerneck -22.1435 -0.228561 0.481445
upperneck 17.8844 -1.63373 5.43468
head 9.34127 -0.0563733 1.58203
rclavicle -2.25869e-014 -3.29983e-014
rhumerus -18.1679 22.87 -90.0731
rradius 40.3364
rwrist -4.69133
rhand -11.2106 -32.7627
rfingers 7.12502
rthumb 14.8176 -62.2129
lclavicle -2.25869e-014 -3.29983e-014
lhumerus -20.4717 -13.4041 88.2778
lradius 30.8093
lwrist 1.28514
lhand -21.6595 -26.6128
lfingers 7.12502
lthumb 4.73752 3.31419
rfemur 12.9898 -2.24547 27.0565
rtibia 9.35807
rfoot -22.0157 -1.53862
rtoes 11.2484
lfemur -20.6938 3.3491 -4.83909
ltibia 18.7571
lfoot -5.33329 10.4863
ltoes 0.790803
789
root 33.2835 16.7508 -1.06288 124.401 98.6001 127.124
lowerback 6.01245 2.55872 5.79294
upperback 7.11161 3.8051 1.68534
thorax 4.28843 2.24173 -1.5466
lowerneck -21.9136 -0.113585 0.429566
upperneck 17.6416 -1.34925 4.98562
head 9.20141 0.00757105 1.46977
rclavicle 9.23106e-015 -5.96354e-016
rhumerus -17.8678 23.436 -90.1398
rradius 40.2645
rwrist -4.6693
rhand -11.1279 -32.7106
rfingers 7.12502
rthumb 14.8973 -62.155
lclavicle 9.23106e-015 -5.96354e-016
lhumerus -20.488 -13.2245 88.2592
lradius 30.6839
lwrist 1.20118
lhand -21.8297 -26.8509
lfingers 7.12502
lthumb 4.57317 3.07975
rfemur 13.5215 -2.28114 27.5211
rtibia 9.187
rfoot -22.3235 -1.27956
rtoes 10.4526
lfemur -20.3756 2.25597 -3.79146
ltibia 16.1168
lfoot -4.99377 10.4685
ltoes 0.531663
790
root 33.4191 16.7291 -1.07589 124.067 98.9966 126.634
lowerback 5.7375 2.58011 6.10576
upperback 7.06307 3.81834 1.72592
thorax 4.41392 2.26143 -1.66249
lowerneck -22.3834 -0.280683 0.259502
upperneck 18.0848 -1.48864 4.6765
head 9.43922 -0.0930884 1.37715
rclavicle -1.50082e-014 -4.47266e-015
rhumerus -17.723 23.6818 -90.2108
rradius 40.2885
rwrist -4.41626
rhand -10.9294 -32.7687
rfingers 7.12502
rthumb 15.0885 -62.1988
lclavicle -1.50082e-014 -4.47266e-015
lhumerus -20.7043 -12.9684 88.3252
lradius 30.6739
lwrist 1.14638
lhand -21.8706 -26.989
lfingers 7.12502
lthumb 4.53376 2.94246
rfemur 14.0044 -2.39804 27.7507
rtibia 8.97625
rfoot -22.6166 -0.953763
rtoes 10.1387
lfemur -20.2272 1.01463 -2.96424
ltibia 13.7195
lfoot -5.03188 10.3016
ltoes -0.758294
791
root 33.5462 16.7096 -1.08562 124.509 99.3768 126.839
lowerback 5.60837 2.65095 6.29312
upperback 6.84613 3.90374 1.73456
thorax 4.27742 2.2992 -1.75946
lowerneck -22.2765 -0.33572 0.122753
upperneck 18.2481 -1.47083 4.43449
head 9.47436 -0.122745 1.31856
rclavicle -4.66399e-014 -2.27608e-014
rhumerus -17.8757 23.632 -90.4035
rradius 40.3824
rwrist -3.8862
rhand -10.6649 -32.7338
rfingers 7.12502
rthumb 15.3432 -62.1446
lclavicle -4.66399e-014 -2.27608e-014
lhumerus -21.2267 -12.7807 88.4021
lradius 30.8266
lwrist 1.07313
lhand -21.8171 -27.0937
lfingers 7.12502
lthumb 4.58539 2.83662
rfemur 14.2796 -2.36913 27.9635
rtibia 8.89378
rfoot -22.8565 -0.8754
rtoes 9.35211
lfemur -20.2661 0.0102056 -2.18202
ltibia 11.6949
lfoot -5.48366 10.1927
ltoes -1.22343
792
root 33.6726 16.6871 -1.09581 125.662 99.5446 127.823
lowerback 5.45845 2.70723 6.21754
upperback 6.70972 3.96193 1.66827
thorax 4.22048 2.31775 -1.78413
lowerneck -21.8038 -0.236969 -0.0669244
upperneck 17.9761 -1.22086 4.27091
head 9.28753 -0.0510496 1.32323
rclavicle 5.33488e-014 -6.36111e-015
rhumerus -17.9264 23.8361 -90.591
rradius 40.3999
rwrist -3.59797
rhand -10.4906 -32.7115
rfingers 7.12502
rthumb 15.5112 -62.1094
lclavicle 5.33488e-014 -6.36111e-015
lhumerus -21.649 -12.6923 88.4518
lradius 30.9183
lwrist 1.02256
lhand -21.6594 -26.9804
lfingers 7.12502
lthumb 4.73766 2.94665
rfemur 14.5993 -2.22541 27.9265
rtibia 8.81074
rfoot -23.0869 -1.01397
rtoes 8.48337
lfemur -20.3003 -0.706886 -1.79423
ltibia 10.0953
lfoot -5.87002 9.89278
ltoes -1.29077
